<svg width="34" height="33" viewBox="0 0 33 33" fill="none" xmlns="http://www.w3.org/2000/svg">
<path transform="translate(3,0)" fill-rule="evenodd" clip-rule="evenodd" d="M0.250305 1.38187C0.250305 1.17097 0.42854 1 0.648404 1H29.3115C29.5314 1 29.7096 1.17097 29.7096 1.38187V29.0039C29.7096 29.2148 29.5314 29.3858 29.3115 29.3858C29.0916 29.3858 28.9134 29.2148 28.9134 29.0039V1.76374H0.648404C0.42854 1.76374 0.250305 1.59277 0.250305 1.38187Z" fill="white" stroke="white" stroke-width="0.5" stroke-linecap="round" stroke-linejoin="round"/>
<path transform="translate(0,3)" d="M3.6681 26.5623L3.7931 26.5623L3.7931 26.4373L3.79309 2.67856L5.41897 4.30443C5.62202 4.50749 5.95124 4.50749 6.1543 4.30443C6.35735 4.10138 6.35735 3.77216 6.1543 3.5691L3.6408 1.0556C3.43775 0.85255 3.10853 0.85255 2.90547 1.0556L0.391976 3.5691C0.18892 3.77216 0.18892 4.10138 0.391976 4.30443C0.595033 4.50749 0.924251 4.50749 1.12731 4.30443L2.75318 2.67856L2.75318 26.4373L2.75318 26.5623L2.87818 26.5623L3.6681 26.5623Z" fill="white" stroke="white" stroke-width="0.25"/>
<path transform="translate(2,26)" d="M0.752197 3.83143V3.95643H0.877197L24.7603 3.95643L23.1262 5.58207C22.922 5.78518 22.922 6.11475 23.1262 6.31786C23.33 6.52061 23.6602 6.52061 23.864 6.31786L26.3906 3.80436C26.5947 3.60125 26.5947 3.27168 26.3906 3.06857L23.864 0.555078C23.6602 0.352327 23.33 0.352328 23.1262 0.555077C22.922 0.758186 22.922 1.08776 23.1262 1.29087L24.7603 2.91651L0.877197 2.91651H0.752197V3.04151L0.752197 3.83143Z" fill="white" stroke="white" stroke-width="0.25"/>
<path transform="translate(8,0)" fill-rule="evenodd" clip-rule="evenodd" d="M6.16245 1.11568C6.31669 1.26992 6.31669 1.51999 6.16245 1.67423L1.42295 6.41373C1.26871 6.56797 1.01864 6.56797 0.864399 6.41373C0.710158 6.25949 0.710158 6.00941 0.864399 5.85517L5.60389 1.11568C5.75813 0.96144 6.0082 0.96144 6.16245 1.11568Z" fill="white" stroke="white" stroke-width="0.5" stroke-linecap="round" stroke-linejoin="round"/>
<path transform="translate(20,13)" fill-rule="evenodd" clip-rule="evenodd" d="M12.0851 1.11391C12.2403 1.26716 12.2419 1.51723 12.0886 1.67245L1.81975 12.073C1.66649 12.2282 1.41642 12.2298 1.2612 12.0766C1.10598 11.9233 1.10439 11.6732 1.25765 11.518L11.5265 1.11746C11.6798 0.962245 11.9299 0.960652 12.0851 1.11391Z" fill="white" stroke="white" stroke-width="0.5" stroke-linecap="round" stroke-linejoin="round"/>
<path transform="translate(9,0)" fill-rule="evenodd" clip-rule="evenodd" d="M17.4084 1.24959C17.5614 1.40507 17.5594 1.65514 17.4039 1.80813L0.947364 18.0014C0.791885 18.1544 0.54182 18.1524 0.388828 17.9969C0.235836 17.8414 0.237853 17.5913 0.393332 17.4384L16.8499 1.24509C17.0054 1.0921 17.2554 1.09412 17.4084 1.24959Z" fill="white" stroke="white" stroke-width="0.5" stroke-linecap="round" stroke-linejoin="round"/>
<path transform="translate(8,0)" fill-rule="evenodd" clip-rule="evenodd" d="M24.3306 1.24733C24.4849 1.40157 24.4849 1.65165 24.3306 1.80589L1.68638 24.4501C1.53214 24.6044 1.28207 24.6044 1.12783 24.4501C0.973586 24.2959 0.973586 24.0458 1.12783 23.8916L23.7721 1.24733C23.9263 1.09309 24.1764 1.09309 24.3306 1.24733Z" fill="white" stroke="white" stroke-width="0.5" stroke-linecap="round" stroke-linejoin="round"/>
<path transform="translate(15,6)" fill-rule="evenodd" clip-rule="evenodd" d="M17.5939 1.17177C17.7482 1.32601 17.7482 1.57609 17.5939 1.73033L1.00572 18.3185C0.851476 18.4728 0.601403 18.4728 0.447162 18.3185C0.292922 18.1643 0.292922 17.9142 0.447162 17.76L17.0354 1.17177C17.1896 1.01753 17.4397 1.01753 17.5939 1.17177Z" fill="white" stroke="white" stroke-width="0.5" stroke-linecap="round" stroke-linejoin="round"/>
<path transform="translate(8,0)" fill-rule="evenodd" clip-rule="evenodd" d="M11.5938 1.35915C11.7481 1.51339 11.7481 1.76346 11.5938 1.9177L1.58824 11.9233C1.434 12.0775 1.18392 12.0775 1.02968 11.9233C0.875441 11.7691 0.875441 11.519 1.02968 11.3647L11.0353 1.35915C11.1895 1.20491 11.4396 1.20491 11.5938 1.35915Z" fill="white" stroke="white" stroke-width="0.5" stroke-linecap="round" stroke-linejoin="round"/>
<path transform="translate(27,19)" fill-rule="evenodd" clip-rule="evenodd" d="M5.46225 0.942341C5.61649 1.09658 5.61649 1.34665 5.46225 1.5009L1.11772 5.84543C0.963476 5.99967 0.713402 5.99967 0.559162 5.84543C0.404921 5.69119 0.404921 5.44111 0.559162 5.28687L4.9037 0.942341C5.05794 0.7881 5.30801 0.7881 5.46225 0.942341Z" fill="white" stroke="white" stroke-width="0.5" stroke-linecap="round" stroke-linejoin="round"/>
</svg>
