<svg width="14" height="15" viewBox="0 0 14 15" fill="none" xmlns="http://www.w3.org/2000/svg">
<path d="M10 1.72119H4.00001C2.34316 1.72119 1.00001 3.06434 1.00001 4.72119V10.7212C1.00001 12.378 2.34316 13.7212 4.00001 13.7212H10C11.6569 13.7212 13 12.378 13 10.7212V4.72119C13 3.06434 11.6569 1.72119 10 1.72119Z" stroke="white" stroke-width="1.5"/>
<path transform="translate(3, 4)" d="M6.40003 3.34337C6.47408 3.84272 6.38879 4.3527 6.15629 4.80078C5.92379 5.24886 5.55592 5.61222 5.10501 5.83918C4.6541 6.06613 4.1431 6.14513 3.6447 6.06493C3.14631 5.98473 2.68589 5.74942 2.32894 5.39247C1.97198 5.03552 1.73667 4.5751 1.65647 4.0767C1.57627 3.5783 1.65527 3.06731 1.88223 2.6164C2.10919 2.16548 2.47254 1.79762 2.92062 1.56512C3.3687 1.33262 3.87869 1.24733 4.37803 1.32137C4.88739 1.3969 5.35894 1.63425 5.72305 1.99836C6.08715 2.36246 6.3245 2.83402 6.40003 3.34337Z" stroke="white" stroke-width="1.5" stroke-linecap="round" stroke-linejoin="round"/>
</svg>
