<svg width="34" height="32" viewBox="0 0 34 32" fill="none" xmlns="http://www.w3.org/2000/svg">
<path d="M24.6002 2.19966C24.3374 0.946405 23.1962 0 21.8313 0C21.5193 0 21.2661 0.245812 21.2661 0.549916C21.2661 0.85402 21.5193 1.09983 21.8313 1.09983C22.7661 1.09983 23.5269 1.84002 23.5269 2.74958C23.5269 3.65914 22.7661 4.39933 21.8313 4.39933C21.5193 4.39933 21.2661 4.64514 21.2661 4.94924C21.2661 5.25335 21.5193 5.49916 21.8313 5.49916C23.1957 5.49916 24.3374 4.55275 24.6002 3.2995H32.0048V8.24874H1.48442V3.2995H9.3971H11.0927C11.4047 3.2995 11.6579 3.05368 11.6579 2.74958C11.6579 2.44548 11.4047 2.19966 11.0927 2.19966H10.0663C10.3003 1.56066 10.922 1.09983 11.6579 1.09983C12.5927 1.09983 13.3534 1.84002 13.3534 2.74958C13.3534 3.65914 12.5927 4.39933 11.6579 4.39933C11.3459 4.39933 11.0927 4.64514 11.0927 4.94924C11.0927 5.25335 11.3459 5.49916 11.6579 5.49916C13.2161 5.49916 14.4838 4.2657 14.4838 2.74958C14.4838 1.23346 13.2161 0 11.6579 0C10.2935 0 9.1518 0.946405 8.88899 2.19966H0.354034V9.34857V31.3452H33.1351V9.34857V2.19966H24.6002ZM32.0048 30.2454H1.48442V9.34857H32.0048V30.2454Z" fill="white"/>
<path transform="translate(14,0)" d="M1.04905 1.09983C1.98387 1.09983 2.74462 1.84002 2.74462 2.74958C2.74462 3.65914 1.98387 4.39933 1.04905 4.39933C0.737062 4.39933 0.483856 4.64514 0.483856 4.94924C0.483856 5.25335 0.737062 5.49916 1.04905 5.49916C2.60728 5.49916 3.875 4.2657 3.875 2.74958C3.875 1.23346 2.60728 0 1.04905 0C0.737062 0 0.483856 0.245812 0.483856 0.549916C0.483856 0.85402 0.737062 1.09983 1.04905 1.09983Z" fill="white"/>
<path transform="translate(17,0)" d="M1.44019 1.09983C2.37502 1.09983 3.13577 1.84002 3.13577 2.74958C3.13577 3.65914 2.37502 4.39933 1.44019 4.39933C1.12821 4.39933 0.875 4.64514 0.875 4.94924C0.875 5.25335 1.12821 5.49916 1.44019 5.49916C2.99843 5.49916 4.26615 4.2657 4.26615 2.74958C4.26615 1.23346 2.99843 0 1.44019 0C1.12821 0 0.875 0.245812 0.875 0.549916C0.875 0.85402 1.12821 1.09983 1.44019 1.09983Z" fill="white"/>
<path transform="translate(4,12)" d="M1.4408 1.74748H13.875C14.187 1.74748 14.4402 1.50166 14.4402 1.19756C14.4402 0.893457 14.187 0.647644 13.875 0.647644H1.4408C1.12882 0.647644 0.87561 0.893457 0.87561 1.19756C0.87561 1.50166 1.12882 1.74748 1.4408 1.74748Z" fill="white"/>
<path transform="translate(19,21)" d="M9.04847 0.446655H0.570593C0.258607 0.446655 0.00540161 0.692468 0.00540161 0.996571C0.00540161 1.30067 0.258607 1.54649 0.570593 1.54649H9.04847C9.36045 1.54649 9.61366 1.30067 9.61366 0.996571C9.61366 0.692468 9.36045 0.446655 9.04847 0.446655Z" fill="white"/>
<path transform="translate(4,17)" d="M1.4408 1.1472H7.09272C7.4047 1.1472 7.65791 0.901384 7.65791 0.59728C7.65791 0.293176 7.4047 0.0473633 7.09272 0.0473633H1.4408C1.12882 0.0473633 0.87561 0.293176 0.87561 0.59728C0.87561 0.901384 1.12882 1.1472 1.4408 1.1472Z" fill="white"/>
<path transform="translate(21,25)" d="M7.04849 0.845886H1.39658C1.0846 0.845886 0.83139 1.0917 0.83139 1.3958C0.83139 1.69991 1.0846 1.94572 1.39658 1.94572H7.04849C7.36048 1.94572 7.61369 1.69991 7.61369 1.3958C7.61369 1.0917 7.36048 0.845886 7.04849 0.845886Z" fill="white"/>
<path transform="translate(16,17)" d="M0.179413 0.59728C0.179413 0.901384 0.432619 1.1472 0.744604 1.1472H9.22248C9.53446 1.1472 9.78767 0.901384 9.78767 0.59728C9.78767 0.293176 9.53446 0.0473633 9.22248 0.0473633H0.744604C0.432619 0.0473633 0.179413 0.293176 0.179413 0.59728Z" fill="white"/>
<path transform="translate(13,17)" d="M1.31999 0.987987C1.42173 0.883503 1.4839 0.740525 1.4839 0.597547C1.4839 0.454018 1.42173 0.311041 1.31999 0.207106C1.11087 0.0036371 0.726542 0.0036371 0.517421 0.207106C0.415687 0.311041 0.353516 0.454018 0.353516 0.597547C0.353516 0.740525 0.415687 0.883503 0.517421 0.987987C0.624808 1.09192 0.771757 1.14746 0.918706 1.14746C1.06566 1.14746 1.21261 1.09192 1.31999 0.987987Z" fill="white"/>
<path transform="translate(7,21)" d="M0.701538 0.996571C0.701538 1.30067 0.954744 1.54649 1.26673 1.54649H9.7446C10.0566 1.54649 10.3098 1.30067 10.3098 0.996571C10.3098 0.692468 10.0566 0.446655 9.7446 0.446655H1.26673C0.954744 0.446655 0.701538 0.692468 0.701538 0.996571Z" fill="white"/>
<path transform="translate(4,21)" d="M1.4408 1.54693C1.58775 1.54693 1.7347 1.48644 1.84209 1.38746C1.94382 1.28297 2.00599 1.13999 2.00599 0.997014C2.00599 0.853486 1.94382 0.710507 1.84209 0.612071C1.63297 0.403102 1.24864 0.403103 1.03952 0.606573C0.937781 0.710508 0.87561 0.853486 0.87561 0.997014C0.87561 1.13999 0.937781 1.28297 1.03952 1.38746C1.1469 1.48644 1.2882 1.54693 1.4408 1.54693Z" fill="white"/>
<path transform="translate(27,17)" d="M1.04847 1.14746C1.19542 1.14746 1.34236 1.09192 1.44975 0.987987C1.55714 0.883503 1.61366 0.740525 1.61366 0.597547C1.61366 0.454018 1.55714 0.311041 1.44975 0.207106C1.23498 0.0036371 0.856302 0.0036371 0.647182 0.207106C0.545448 0.311041 0.483276 0.454018 0.483276 0.597547C0.483276 0.740525 0.545448 0.883503 0.647182 0.987987C0.754568 1.09192 0.901517 1.14746 1.04847 1.14746Z" fill="white"/>
<path transform="translate(4,25)" d="M15.5706 0.845886H1.4408C1.12882 0.845886 0.87561 1.0917 0.87561 1.3958C0.87561 1.69991 1.12882 1.94572 1.4408 1.94572H15.5706C15.8826 1.94572 16.1358 1.69991 16.1358 1.3958C16.1358 1.0917 15.8826 0.845886 15.5706 0.845886Z" fill="white"/>
</svg>
